PathFileType  4	(X/Y/Z) C:\Users\antoi\Documents\MyRepositories\mobilecap\ResultsAnalysis
DataRate	CameraRate	NumFrames	NumMarkers	Units	OrigDataRate	OrigDataStartFrame	OrigNumFrames
100.0	100.0	6	51	mm	100.0	17	128
Frame#	Time	r_knee			r_shank_antsup			r_ankle			r_calc			r_5meta			r_toe			L_knee			L_shank_antsup			L_ankle			L_calc			L_5meta			L_toe			r_sh2			r_sh3			r_sh4			L_sh2			L_sh3			r_thigh1			r_thigh2			r_thigh3			r_thigh4			r_thigh5			L_thigh1			L_thigh2			L_thigh3			L_thigh4			r.ASIS			r.PSIS			L.ASIS			L.PSIS			C7			R_Shoulder			L_Shoulder			R_Sternum			L_Sternum			R_humerus			R_elbow_med			R_elbow_lat			R_forearm			R_wrist_radius			R_wrist_ulna			L_humerus			L_elbow_med			L_elbow_lat			L_forearm			L_wrist_radius			L_wrist_ulna			R_HJC			L_HJC			R_HJC_reg			L_HJC_reg			
		X1	Y1	Z1	X2	Y2	Z2	X3	Y3	Z3	X4	Y4	Z4	X5	Y5	Z5	X6	Y6	Z6	X7	Y7	Z7	X8	Y8	Z8	X9	Y9	Z9	X10	Y10	Z10	X11	Y11	Z11	X12	Y12	Z12	X13	Y13	Z13	X14	Y14	Z14	X15	Y15	Z15	X16	Y16	Z16	X17	Y17	Z17	X18	Y18	Z18	X19	Y19	Z19	X20	Y20	Z20	X21	Y21	Z21	X22	Y22	Z22	X23	Y23	Z23	X24	Y24	Z24	X25	Y25	Z25	X26	Y26	Z26	X27	Y27	Z27	X28	Y28	Z28	X29	Y29	Z29	X30	Y30	Z30	X31	Y31	Z31	X32	Y32	Z32	X33	Y33	Z33	X34	Y34	Z34	X35	Y35	Z35	X36	Y36	Z36	X37	Y37	Z37	X38	Y38	Z38	X39	Y39	Z39	X40	Y40	Z40	X41	Y41	Z41	X42	Y42	Z42	X43	Y43	Z43	X44	Y44	Z44	X45	Y45	Z45	X46	Y46	Z46	X47	Y47	Z47	X48	Y48	Z48	X49	Y49	Z49	X50	Y50	Z50	X51	Y51	Z51	

17	0.16000000	195.45129	501.11673	-86.87833	235.30670	431.76518	-103.67485	159.01149	97.44730	-122.42523	91.41954	67.82214	-161.15678	263.58043	42.21041	-94.02564	312.11637	70.25582	-150.00695	203.11608	495.75797	-393.65650	173.00544	406.08450	-399.06256	-102.99126	263.54784	-364.97170	-167.32631	299.92557	-314.42185	-103.45740	137.02457	-394.06798	-50.34572	122.26865	-346.75653	210.35903	318.49234	-84.78269	157.31632	444.28195	-75.22705	136.28075	333.53023	-79.02615	126.22585	481.90932	-393.77953	28.11343	409.17876	-395.55295	217.90606	824.48186	-53.07098	229.36718	710.50821	-56.32693	174.50570	683.80982	-33.28539	106.69436	811.27856	-37.05676	119.05992	695.07249	-47.66732	168.71295	754.30510	-425.37553	212.97257	624.63047	-412.03177	77.48544	725.38602	-361.33551	124.92827	594.60970	-356.81855	220.31350	979.13267	-106.82233	26.16691	1018.94437	-176.14326	210.00690	950.21061	-356.56459	13.29271	1013.55216	-276.46007	47.23595	1428.28192	-248.95800	154.83956	1383.63235	-76.23049	116.08613	1390.74773	-432.23756	185.83932	1387.66044	-235.73965	188.75102	1388.41165	-278.37662	164.68421	1256.83016	-5.81744	101.01345	1041.07439	-14.02192	128.57133	1065.71040	52.29045	253.19897	997.64805	21.60596	352.59391	909.29574	-13.57518	341.30668	891.22055	16.14782	131.25087	1281.66034	-499.14621	77.58941	1045.50336	-471.03589	100.06301	1075.48506	-542.00989	188.95815	997.36901	-538.18737	270.53315	861.78763	-545.23894	247.74149	853.91164	-570.43193	139.35947	900.80478	-118.87140	127.06666	882.68791	-324.17551	150.54489	899.46511	-128.69168	129.43507	890.62209	-293.17655	
18	0.17000000	198.74366	501.63684	-86.29169	237.71121	431.91893	-102.81268	158.99827	97.74491	-122.10679	91.44002	68.17275	-160.87884	263.59947	42.12159	-93.73587	312.32856	70.25387	-149.61869	225.36309	499.94752	-392.17608	197.27997	409.51650	-396.65978	-74.49595	259.83220	-360.26062	-140.19504	293.72734	-309.37663	-70.20544	133.52258	-389.18419	-16.37425	120.98207	-342.06678	211.69908	318.81879	-84.09245	159.54888	445.00568	-75.02129	137.76944	334.39998	-78.78543	148.53950	484.09953	-391.48767	52.32647	408.81596	-392.30816	227.70652	824.66381	-52.44923	236.78465	710.67602	-55.56420	181.86696	684.75199	-32.73225	116.33642	813.50770	-35.92379	126.56906	697.18680	-46.90055	184.80847	757.82527	-424.27762	232.36571	629.26783	-410.87299	93.91759	726.37637	-360.97712	144.87434	596.91251	-356.10719	231.81375	981.03312	-105.14468	37.85449	1020.96946	-175.10963	222.03588	953.63087	-354.82121	25.14604	1016.00786	-275.41730	58.50635	1430.57911	-247.20194	167.28807	1386.56011	-75.31601	125.48348	1392.50501	-430.93683	197.06838	1390.18123	-235.21840	199.74460	1390.83790	-277.87044	178.65737	1259.68975	-5.19252	117.49028	1043.25558	-13.66011	145.68040	1067.82183	52.46866	270.40546	1001.12427	19.32241	370.53612	913.92479	-17.31779	359.64807	895.66260	12.56324	139.04291	1283.21137	-497.95531	83.43965	1047.73998	-468.11031	105.48941	1077.03877	-539.49599	193.91813	998.33649	-535.97334	274.50501	862.12114	-542.70387	251.47555	854.23290	-567.68163	150.90727	902.69601	-117.91167	139.34196	885.67299	-323.35052	162.22396	901.70476	-127.45774	141.39609	893.57195	-291.84598	
19	0.18000000	202.11728	502.15283	-85.70236	240.17639	432.10916	-101.96577	158.98676	98.06247	-121.72055	91.49954	68.57458	-160.52992	263.61808	42.00302	-93.43466	312.53713	70.23463	-149.20454	247.07477	504.17545	-390.90009	221.25922	412.91557	-394.45773	-45.57446	255.16794	-355.76279	-112.54695	286.16080	-304.42671	-35.99662	129.26600	-384.66293	18.60744	119.14425	-337.82226	213.10200	319.19302	-83.37921	161.87579	445.77094	-74.74395	139.34420	335.32113	-78.47410	170.30187	485.99274	-389.16768	76.34227	407.84829	-389.16069	237.50249	824.70067	-51.94528	244.18474	710.83721	-55.16706	189.20888	685.61974	-32.25651	125.90131	815.62113	-34.82226	134.06938	699.16264	-46.18253	200.90749	761.32679	-423.34914	251.57444	633.90372	-409.85662	110.24499	727.40223	-360.98916	164.52555	599.27466	-355.69590	243.23964	982.69070	-103.51639	49.48118	1022.80712	-174.15513	234.01484	956.78784	-353.13163	36.94494	1018.24511	-274.45012	69.72779	1432.67158	-245.56600	179.75029	1389.43022	-74.54368	134.83438	1394.03466	-429.70834	208.26840	1392.52604	-234.80484	210.67100	1393.09739	-277.42734	192.65392	1262.51536	-4.67535	133.83966	1045.50212	-13.34633	162.60273	1070.00307	52.58221	287.45345	1004.76601	17.03817	388.34487	918.82576	-21.07131	377.97517	900.32016	8.89615	146.78899	1284.54671	-496.80488	89.31972	1049.76595	-465.21191	110.87970	1078.42126	-537.02954	198.90332	999.18759	-533.87245	278.54903	862.39016	-540.34977	255.28498	854.47714	-565.10101	162.36562	904.36852	-117.00764	151.54603	888.42059	-322.57299	173.80535	903.75084	-126.25351	153.26857	896.27660	-290.55055	
20	0.19000000	205.58981	502.65024	-85.07484	242.72958	432.30801	-101.09358	158.98781	98.41072	-121.25309	91.59845	69.02257	-160.11968	263.64008	41.84051	-93.13218	312.73150	70.17883	-148.76853	268.30193	508.36101	-389.77967	244.94696	416.21640	-392.50183	-16.18471	249.60174	-351.51589	-84.27860	277.34968	-299.61594	-0.92225	124.35432	-380.53217	54.49499	116.83441	-334.06489	214.59481	319.59608	-82.61924	164.33546	446.56740	-74.35641	141.01538	336.28805	-78.08298	191.55383	487.52355	-386.89238	100.21471	406.25444	-386.15332	247.25345	824.60086	-51.49726	251.64576	710.92968	-55.05539	196.53765	686.39531	-31.81772	135.40823	817.56978	-33.74814	141.56834	700.96326	-45.50906	216.92588	764.76045	-422.59531	270.50328	638.47993	-408.97642	126.41375	728.45379	-361.28652	183.81292	601.65128	-355.53471	254.59941	984.07785	-101.94011	61.05631	1024.44006	-173.26317	245.93825	959.60988	-351.52443	48.69106	1020.23806	-273.54114	80.91039	1434.54441	-244.05977	192.23042	1392.19936	-73.91340	144.16440	1395.31601	-428.55911	219.44472	1394.68990	-234.48898	221.52576	1395.17811	-277.04664	206.72452	1265.26511	-4.28581	150.05768	1047.76643	-13.02978	179.38660	1072.22713	52.65228	304.38076	1008.53220	14.82232	405.97810	923.91872	-24.80393	396.23659	905.13493	5.17842	154.48525	1285.64229	-495.69793	95.27292	1051.53933	-462.34844	116.25983	1079.60505	-534.60877	203.92776	999.89150	-531.88669	282.69481	862.57137	-538.18092	259.21948	854.61757	-562.68771	173.73966	905.79897	-116.14834	163.65634	890.87992	-321.82895	185.29009	905.56095	-125.07274	165.03861	898.67884	-289.30192	
21	0.20000000	209.16692	503.11978	-84.38618	245.38421	432.48833	-100.17069	159.01873	98.80193	-120.70380	91.73063	69.52202	-159.66039	263.66771	41.63102	-92.83104	312.90987	70.07955	-148.30876	289.11193	512.40756	-388.75661	268.33636	419.35352	-390.82416	13.73870	243.18514	-347.55985	-55.30146	267.43217	-295.01478	34.95511	118.89259	-376.82545	91.16166	114.12292	-330.81349	216.20204	320.00778	-81.80205	166.94914	447.38181	-73.85187	142.78512	337.29008	-77.61512	212.32818	488.63397	-384.74805	123.99681	404.02471	-383.32696	256.92678	824.37748	-51.04793	259.23177	710.88504	-55.11190	203.85401	687.06863	-31.38324	144.87694	819.32137	-32.69887	149.07388	702.57265	-44.87194	232.76654	768.07024	-422.00592	289.05317	642.93315	-408.22059	142.35852	729.51173	-361.78700	202.68625	603.97941	-355.58527	265.90821	985.19277	-100.42336	72.59051	1025.85708	-172.42054	257.80903	962.04928	-350.02617	60.38540	1021.97306	-272.67715	92.06309	1436.18875	-242.69527	204.71843	1394.82949	-73.42533	153.50202	1396.33576	-427.49764	230.60068	1396.66666	-234.26229	232.31155	1397.06872	-276.73102	220.88903	1267.90913	-4.03385	166.15767	1049.99259	-12.66270	196.08519	1074.47039	52.69781	321.21364	1012.37620	12.71600	423.40660	929.12214	-28.49143	414.35883	910.05499	1.44342	162.14276	1286.48511	-494.64196	101.32978	1053.04002	-459.54184	121.65828	1080.57127	-532.23687	209.00100	1000.42138	-530.01864	286.96596	862.64027	-536.19945	263.31913	854.62825	-560.43433	185.04532	906.98275	-115.32519	175.66334	893.01772	-321.10724	196.69711	907.10370	-123.91639	176.70772	900.74290	-288.11456	
22	0.21000000	212.85479	503.55766	-83.63197	248.15049	432.63106	-99.19600	159.10316	99.24656	-120.09037	91.89147	70.08880	-159.16786	263.70313	41.38435	-92.52887	313.08020	69.93853	-147.82552	309.53979	516.23003	-387.78301	291.41362	422.26679	-389.43399	44.27687	235.97913	-343.94400	-25.54487	256.55514	-290.71960	71.60782	112.99105	-373.57941	128.48720	111.07939	-328.06585	217.94274	320.41149	-80.93383	169.72798	448.20125	-73.24998	144.65835	338.31399	-77.08372	232.64986	489.27457	-382.81530	147.74055	401.15893	-380.71838	266.50424	824.04301	-50.55119	266.97499	710.65260	-55.21700	211.15163	687.63878	-30.93249	154.31709	820.86679	-31.67518	156.58951	703.99677	-44.25970	248.33336	771.19816	-421.55884	307.13472	647.19731	-407.57467	158.01343	730.54096	-362.42800	221.11433	606.18763	-355.82379	277.18109	986.04913	-98.97718	84.08945	1027.05211	-171.61804	269.63500	964.08368	-348.65450	72.02962	1023.44380	-271.84948	103.19454	1437.59835	-241.48156	217.19684	1397.28769	-73.07963	162.87263	1397.08664	-426.53384	241.73715	1398.44331	-234.11963	243.03876	1398.75375	-276.48496	235.13812	1270.42746	-3.91891	182.16976	1052.12160	-12.20417	212.74380	1076.71016	52.73766	337.96323	1016.24594	10.73178	440.62279	934.36093	-32.11374	432.28064	915.02943	-2.27736	169.78903	1287.07063	-493.64687	107.51230	1054.26314	-456.82283	127.10864	1081.30844	-529.92211	214.13833	1000.75638	-528.27224	291.38816	862.57237	-534.40446	267.61253	854.48738	-558.33106	196.30146	907.92654	-114.53246	187.56777	894.81773	-320.40076	208.04740	908.36414	-122.79301	188.28987	902.45344	-287.00280	
